<svg width="78" height="38" viewBox="0 0 78 38" fill="none" xmlns="http://www.w3.org/2000/svg">
<path d="M15.6 30.8C15.6 34.44 15.48 35.48 15.48 36.04C15.48 36.8 15.76 37.16 16.64 37.16C17.76 37.16 18.36 36.72 18.36 35.88V35.16H29.4V35.84C29.4 36.6 29.72 36.88 30.6 36.88C31.8 36.88 32.32 36.48 32.32 35.56C32.32 35.08 32.16 33.32 32.16 29.64V27.56C32.8 27.08 32.96 26.92 32.96 26.72C32.96 26.64 32.96 26.6 32.92 26.48C34.56 27.16 35.08 27.28 35.44 27.28C35.76 27.28 35.92 27.12 36.12 26.52C36.52 25.4 36.92 25.08 37.96 24.68C38.16 24.6 38.2 24.28 38 24.24C34.08 23.8 30.52 22.76 27.24 21C26.76 20.72 26.28 20.44 25.84 20.12C27.92 18.32 29.8 16.28 31.36 13.96C32.36 13.68 32.76 13.44 32.76 13.04C32.76 12.8 32.6 12.52 32.04 11.96C30.6 10.68 30.4 10.52 30.12 10.52C29.88 10.52 29.68 10.68 28.36 11.96H20.84C21.08 11.52 21.32 11.08 21.56 10.6C22.68 10.4 22.96 10.16 22.96 9.8C22.96 9.4 22.24 9.08 19 8.2C18.84 9.44 18.36 10.88 17.64 12.4C16.24 15.48 13.96 18.76 11.4 21.24C11.2 21.44 11.6 21.84 11.84 21.68C14.84 19.72 17.08 17.64 19.04 14.84C20.04 16.6 21.28 18.24 22.68 19.68C19.12 22.68 14.68 25.2 9.72 27.12C9.44 27.24 9.68 27.84 9.96 27.76C11.92 27.32 13.8 26.76 15.6 26.08V30.8ZM28.52 12.96C27.32 15 25.72 16.88 23.84 18.64C22.24 17.28 20.8 15.76 19.56 14.08C19.8 13.72 20.04 13.36 20.28 12.96H28.52ZM18.44 25.8C18.08 25.56 17.8 25.4 17.52 25.28C19.96 24.24 22.24 22.88 24.36 21.32C26 22.8 27.76 23.96 29.96 25.08C29.76 25.24 29.56 25.48 29.24 25.8H18.44ZM29.4 34.16H18.36V26.8H29.4V34.16ZM36.48 5.96C36.88 5.96 37 5.84 37 5.6C37 5.36 36.88 5.08 36 4.36C34.2 2.92 33.84 2.76 33.56 2.76C33.32 2.76 33.04 2.96 31.4 4.96H25.08V2.52C26.16 2.08 26.44 1.88 26.44 1.52C26.44 0.999998 25.56 0.759999 22.08 0.399999C22.28 1.92 22.28 2.44 22.28 4.56V4.96H14.68V2.48C15.84 2.04 16.08 1.8 16.08 1.52C16.08 0.959999 15.76 0.879997 11.76 0.399999C11.92 1.68 11.92 2.08 11.92 3.72V4.96H4.48C3.4 4.96 2.56 4.88 1.28 4.6L1.68 6.2C2.8 6.04 3.56 5.96 4.48 5.96H11.92C11.88 7.28 11.84 7.92 11.84 8.16C11.84 8.88 12.2 9.16 13.08 9.16C14.16 9.16 14.72 8.8 14.72 8C14.72 7.76 14.68 7.04 14.68 5.96H22.28C22.28 7.08 22.24 7.64 22.24 7.8C22.24 8.44 22.6 8.76 23.52 8.76C24.6 8.76 25.16 8.36 25.16 7.6C25.16 7.36 25.12 6.84 25.12 5.96H36.48ZM8.68 14.72C9.48 14.72 10.08 14.04 10.08 13.16C10.08 11.24 7.8 9.52 4.32 9.08C4.16 9.04 4 9.36 4.12 9.44C5.6 10.56 6.44 11.6 7.16 13.12C7.76 14.52 8.04 14.72 8.68 14.72ZM5.68 21.6C6.48 21.6 7.16 20.88 7.16 19.88C7.16 18.08 4.96 16.52 1.28 16.04C1.12 16 0.96 16.28 1.08 16.36C2.72 17.6 3.64 18.6 4.32 20.08C4.88 21.44 5.08 21.6 5.68 21.6ZM5.64 37.08C6.8 37.08 7.72 36.08 7.72 34.64C7.72 33.24 6.56 31.6 6.56 30.32C6.56 29.6 6.76 28.76 7.08 28.04C8.84 24.2 10.56 20.28 12.32 16.12C12.4 15.88 11.92 15.64 11.8 15.84C9.68 20 7.52 23.84 5.84 26.48C5.08 27.68 4.4 27.96 3.52 27.96C3 27.96 2.64 27.92 1.16 27.68C0.92 27.64 0.8 28.12 1.04 28.2C3.68 29.04 4.4 29.68 4.4 31.2C4.4 32.4 4.08 33.64 4.08 34.96C4.08 36.28 4.72 37.08 5.64 37.08ZM50.4 20.44C51.4 20 51.6 19.8 51.6 19.48C51.6 19.08 51.24 18.92 49.28 18.6C50.48 17.08 51.52 15.4 52.48 13.6C53.72 13.44 54.08 13.16 54.08 12.68C54.08 12.2 53.24 11.76 49.88 10.64C49.56 12.08 49.08 13.56 48.44 14.96C46.64 19.04 43.68 22.88 40.52 25.64C40.32 25.84 40.68 26.32 40.92 26.16C43.52 24.52 45.76 22.68 47.68 20.56C47.68 21.76 47.64 23 47.64 24.24C47.6 32.12 47.36 35.24 47.36 36.12C47.36 36.96 47.76 37.2 48.64 37.2C49.8 37.2 50.44 36.76 50.44 35.84C50.44 34.8 50.4 31.24 50.4 24.4V20.44ZM76.52 6.64C76.92 6.64 77.04 6.52 77.04 6.28C77.04 6.04 76.84 5.8 76.04 5.16C74.2 3.68 73.88 3.48 73.64 3.48C73.4 3.48 73.08 3.68 71.44 5.64H65.08V2.6C66.12 2.2 66.36 1.96 66.36 1.72C66.36 1.2 65.8 1.04 62.08 0.559999C62.24 2.04 62.24 2.4 62.24 5.64H54.52V2.6C55.6 2.2 55.84 1.96 55.84 1.6C55.84 1.12 55.4 0.959999 51.52 0.52C51.72 2 51.72 2.44 51.72 5V5.64H43.96C42.92 5.64 42.12 5.6 40.92 5.36L41.32 6.88C42.36 6.72 43.04 6.64 43.96 6.64H51.72C51.68 8.36 51.6 9.2 51.6 9.48C51.6 10.2 51.96 10.48 52.84 10.48C54 10.48 54.56 10.12 54.56 9.32C54.56 8.96 54.52 8.08 54.52 6.64H62.24C62.24 8.56 62.16 9.4 62.16 9.64C62.16 10.32 62.52 10.56 63.44 10.56C64.6 10.56 65.16 10.2 65.16 9.44C65.16 9.12 65.12 8.16 65.08 6.64H76.52ZM61.88 24.08C66.32 22.4 69.88 20.04 73.16 17.2C74.56 17.32 75 17.04 75 16.6C75 16.08 74.08 15.4 71.24 13.8C70.64 14.96 69.76 16.2 68.56 17.52C66.8 19.36 64.44 21.4 61.88 22.96V13.2C63 12.72 63.28 12.48 63.28 12.04C63.28 11.56 62.56 11.36 58.8 10.96C58.96 14.2 58.96 17.56 58.96 23.4C58.96 29.12 58.88 30.56 58.88 31.36C58.88 35.04 60.04 36.24 66.56 36.24C71.2 36.24 73.28 36 74.68 35.64C76.16 35.24 77 34.6 77 33.72C77 33.04 76.8 32.72 75.92 32.36C75.52 32.24 75.36 32.04 75.36 31.24C75.36 30.08 75.36 28.64 75.4 27.32C75.4 27.12 74.96 27.08 74.92 27.28C74.16 30.36 73.64 31.92 72.84 32.56C71.88 33.32 70.64 33.44 66.96 33.44C62.56 33.44 61.88 33.08 61.88 31.16V24.08Z" fill="black"/>
</svg>
